<svg width="47" height="47" viewBox="0 0 47 47" fill="none" xmlns="http://www.w3.org/2000/svg">
<path d="M38.1875 7.34375H8.8125C8.00133 7.34375 7.34375 8.00133 7.34375 8.8125V38.1875C7.34375 38.9987 8.00133 39.6562 8.8125 39.6562H38.1875C38.9987 39.6562 39.6562 38.9987 39.6562 38.1875V8.8125C39.6562 8.00133 38.9987 7.34375 38.1875 7.34375Z" stroke="#D6D8DE" stroke-width="4" stroke-linecap="round" stroke-linejoin="round"/>
<path d="M32.3125 3.67188V7.34375" stroke="#D6D8DE" stroke-width="4" stroke-linecap="round" stroke-linejoin="round"/>
<path d="M14.6875 3.67188V7.34375" stroke="#D6D8DE" stroke-width="4" stroke-linecap="round" stroke-linejoin="round"/>
<path d="M7.34375 16.1562H39.6562" stroke="#D6D8DE" stroke-width="4" stroke-linecap="round" stroke-linejoin="round"/>
<path d="M16.1562 23.4994H21.2969L18.3594 27.1713C18.8424 27.1713 19.3179 27.2904 19.7439 27.518C20.1699 27.7457 20.5332 28.0748 20.8016 28.4764C21.07 28.878 21.2352 29.3395 21.2827 29.8202C21.3301 30.3008 21.2583 30.7858 21.0736 31.2321C20.8889 31.6784 20.597 32.0722 20.2238 32.3788C19.8505 32.6853 19.4074 32.8951 18.9338 32.9896C18.4601 33.084 17.9704 33.0602 17.5082 32.9202C17.0459 32.7803 16.6253 32.5285 16.2835 32.1872" stroke="#D6D8DE" stroke-width="4" stroke-linecap="round" stroke-linejoin="round"/>
<path d="M27.1719 25.7026L30.1094 23.4995V33.0463" stroke="#D6D8DE" stroke-width="4" stroke-linecap="round" stroke-linejoin="round"/>
</svg>
