<svg width="1440" height="63" viewBox="0 0 1440 63" fill="none" xmlns="http://www.w3.org/2000/svg">
<rect width="1440" height="63" fill="#28303B"/>
<path d="M1324.61 39.9219L1319.69 35L1324.61 30.0781" stroke="#FCFCFC" stroke-width="3" stroke-linecap="round" stroke-linejoin="round"/>
<path d="M1332.81 35L1319.69 35" stroke="#FCFCFC" stroke-width="3" stroke-linecap="round" stroke-linejoin="round"/>
<path d="M1332.81 24.6875L1339.38 24.6875C1339.62 24.6875 1339.86 24.7863 1340.04 24.9621C1340.21 25.1379 1340.31 25.3764 1340.31 25.625L1340.31 44.375C1340.31 44.6236 1340.21 44.8621 1340.04 45.0379C1339.86 45.2137 1339.62 45.3125 1339.38 45.3125L1332.81 45.3125" stroke="#FCFCFC" stroke-width="3" stroke-linecap="round" stroke-linejoin="round"/>
<path d="M1356.2 41.4316C1356.2 42.1934 1356.02 42.8555 1355.65 43.418C1355.28 43.9805 1354.74 44.4141 1354.03 44.7188C1353.33 45.0234 1352.47 45.1758 1351.46 45.1758C1351.02 45.1758 1350.58 45.1465 1350.16 45.0879C1349.73 45.0293 1349.33 44.9443 1348.93 44.833C1348.55 44.7158 1348.18 44.5723 1347.83 44.4023V41.8711C1348.44 42.1406 1349.07 42.3838 1349.72 42.6006C1350.38 42.8174 1351.03 42.9258 1351.68 42.9258C1352.12 42.9258 1352.48 42.8672 1352.75 42.75C1353.02 42.6328 1353.22 42.4717 1353.35 42.2666C1353.47 42.0615 1353.53 41.8271 1353.53 41.5635C1353.53 41.2412 1353.42 40.9658 1353.21 40.7373C1352.99 40.5088 1352.69 40.2949 1352.31 40.0957C1351.93 39.8965 1351.51 39.6826 1351.03 39.4541C1350.74 39.3135 1350.41 39.1436 1350.06 38.9443C1349.71 38.7393 1349.37 38.4902 1349.06 38.1973C1348.74 37.9043 1348.48 37.5498 1348.27 37.1338C1348.08 36.7119 1347.98 36.208 1347.98 35.6221C1347.98 34.8545 1348.15 34.1982 1348.5 33.6533C1348.85 33.1084 1349.36 32.6924 1350.01 32.4053C1350.66 32.1123 1351.44 31.9658 1352.33 31.9658C1352.99 31.9658 1353.63 32.0449 1354.23 32.2031C1354.84 32.3555 1355.48 32.5781 1356.14 32.8711L1355.26 34.9893C1354.67 34.749 1354.14 34.5645 1353.67 34.4355C1353.2 34.3008 1352.72 34.2334 1352.24 34.2334C1351.9 34.2334 1351.61 34.2891 1351.37 34.4004C1351.13 34.5059 1350.95 34.6582 1350.82 34.8574C1350.7 35.0508 1350.64 35.2764 1350.64 35.5342C1350.64 35.8389 1350.73 36.0967 1350.9 36.3076C1351.08 36.5127 1351.35 36.7119 1351.71 36.9053C1352.07 37.0986 1352.53 37.3242 1353.06 37.582C1353.72 37.8926 1354.28 38.2178 1354.74 38.5576C1355.21 38.8916 1355.57 39.2871 1355.82 39.7441C1356.08 40.1953 1356.2 40.7578 1356.2 41.4316ZM1362.35 34.9717C1363.66 34.9717 1364.67 35.2588 1365.38 35.833C1366.08 36.4072 1366.43 37.2803 1366.43 38.4521V45H1364.56L1364.04 43.6641H1363.97C1363.69 44.0156 1363.4 44.3027 1363.11 44.5254C1362.82 44.748 1362.48 44.9121 1362.1 45.0176C1361.72 45.123 1361.26 45.1758 1360.71 45.1758C1360.13 45.1758 1359.61 45.0645 1359.15 44.8418C1358.69 44.6191 1358.33 44.2793 1358.07 43.8223C1357.8 43.3594 1357.67 42.7734 1357.67 42.0645C1357.67 41.0215 1358.04 40.2539 1358.77 39.7617C1359.5 39.2637 1360.6 38.9883 1362.06 38.9355L1363.77 38.8828V38.4521C1363.77 37.9365 1363.63 37.5586 1363.37 37.3184C1363.1 37.0781 1362.72 36.958 1362.24 36.958C1361.77 36.958 1361.3 37.0254 1360.84 37.1602C1360.39 37.2949 1359.93 37.4648 1359.47 37.6699L1358.58 35.8594C1359.11 35.584 1359.69 35.3672 1360.33 35.209C1360.98 35.0508 1361.65 34.9717 1362.35 34.9717ZM1363.77 40.4473L1362.73 40.4824C1361.87 40.5059 1361.26 40.6611 1360.92 40.9482C1360.59 41.2354 1360.42 41.6133 1360.42 42.082C1360.42 42.4922 1360.54 42.7852 1360.78 42.9609C1361.02 43.1309 1361.33 43.2158 1361.72 43.2158C1362.3 43.2158 1362.78 43.0459 1363.17 42.7061C1363.57 42.3662 1363.77 41.8828 1363.77 41.2559V40.4473ZM1371.88 35.1738V45H1369.2V35.1738H1371.88ZM1370.55 31.3242C1370.94 31.3242 1371.29 31.418 1371.57 31.6055C1371.86 31.7871 1372 32.1299 1372 32.6338C1372 33.1318 1371.86 33.4775 1371.57 33.6709C1371.29 33.8584 1370.94 33.9521 1370.55 33.9521C1370.14 33.9521 1369.8 33.8584 1369.51 33.6709C1369.23 33.4775 1369.09 33.1318 1369.09 32.6338C1369.09 32.1299 1369.23 31.7871 1369.51 31.6055C1369.8 31.418 1370.14 31.3242 1370.55 31.3242ZM1380.19 34.9893C1380.32 34.9893 1380.48 34.998 1380.65 35.0156C1380.83 35.0273 1380.98 35.0449 1381.09 35.0684L1380.89 37.582C1380.8 37.5527 1380.68 37.5322 1380.51 37.5205C1380.35 37.5029 1380.22 37.4941 1380.1 37.4941C1379.75 37.4941 1379.42 37.5381 1379.09 37.626C1378.77 37.7139 1378.48 37.8574 1378.22 38.0566C1377.96 38.25 1377.76 38.5078 1377.6 38.8301C1377.46 39.1465 1377.38 39.5361 1377.38 39.999V45H1374.7V35.1738H1376.73L1377.13 36.8262H1377.26C1377.45 36.4922 1377.69 36.1875 1377.98 35.9121C1378.27 35.6309 1378.61 35.4082 1378.97 35.2441C1379.35 35.0742 1379.75 34.9893 1380.19 34.9893Z" fill="#FCFCFC"/>
<path d="M102.773 22.9873H96.7998L107.066 37.1739L96.7998 50.0539H100.393H103.333L110.426 40.3473L117.426 50.0539H123.493L113.226 37.1739L123.493 22.9873H117.426L110.426 32.8384L102.773 22.9873Z" fill="#FCFCFC"/>
<path fill-rule="evenodd" clip-rule="evenodd" d="M77.3577 38.8535H98.0689C98.0689 38.8535 99.4618 22.6136 85.345 22.6136C77.3577 22.6136 71.4135 26.9065 71.4135 37.2667C71.4135 44.08 76.7073 50.0535 85.345 50.0535C93.9827 50.0535 96.7686 42.7735 96.7686 42.7735H91.6605C91.6605 42.7735 88.0556 45.6669 85.345 45.6669C78.8435 45.6669 77.3577 38.8535 77.3577 38.8535ZM92.2178 33.8136H77.8221C77.8221 33.8136 78.4722 27.467 85.345 27.4669C90.6389 27.4668 92.2178 33.8136 92.2178 33.8136Z" fill="#FCFCFC"/>
<path d="M65.44 13H59V44.8266C59 44.8266 59.3883 46.9117 60.4933 48.0933C61.7879 49.4776 62.9934 49.871 64.88 50.0533C67.3473 50.2916 70.6666 48.6533 70.6666 48.6533V44.3599C70.6666 44.3599 68.52 45.1999 65.44 44.8266V13Z" fill="#FCFCFC"/>
<path d="M127.227 22.9873H133.2V50.0539H127.227V22.9873Z" fill="#FEAD00"/>
<path d="M127.227 14.2122H133.2V20.3722H127.227V14.2122Z" fill="#FEAD00"/>
<path fill-rule="evenodd" clip-rule="evenodd" d="M150.467 50.0531C157.941 50.0531 164 43.9941 164 36.5198C164 29.0456 157.941 22.9865 150.467 22.9865C142.992 22.9865 136.933 29.0456 136.933 36.5198C136.933 43.9941 142.992 50.0531 150.467 50.0531ZM150.56 45.2932C155.457 45.2932 159.427 41.3653 159.427 36.5199C159.427 31.6745 155.457 27.7466 150.56 27.7466C145.663 27.7466 141.693 31.6745 141.693 36.5199C141.693 41.3653 145.663 45.2932 150.56 45.2932Z" fill="#FEAD00"/>
</svg>
