<svg width="245" height="87" viewBox="0 0 245 87" fill="none" xmlns="http://www.w3.org/2000/svg">
<path d="M102.137 23.3032H88.1991L112.155 56.4053L88.1991 86.4585H96.5835H103.443L119.994 63.8097L136.328 86.4585H150.483L126.528 56.4053L150.483 23.3032H136.328L119.994 46.289L102.137 23.3032Z" fill="#28303B"/>
<path fill-rule="evenodd" clip-rule="evenodd" d="M42.8338 60.3251H91.1597C91.1597 60.3251 94.4097 22.4319 61.4707 22.4319C42.8338 22.4319 28.9638 32.4488 28.9638 56.6224C28.9638 72.5201 41.3162 86.4583 61.4707 86.4583C81.6252 86.4583 88.1258 69.4717 88.1258 69.4717H76.2068C76.2068 69.4717 67.7953 76.2228 61.4707 76.2228C46.3005 76.2228 42.8338 60.3251 42.8338 60.3251ZM77.5071 48.5652H43.9173C43.9173 48.5652 45.4343 33.7565 61.4707 33.7563C73.823 33.7562 77.5071 48.5652 77.5071 48.5652Z" 
fill="#28303B"/>
<path d="M15.0266 0H0V74.2618C0 74.2618 0.90606 79.127 3.48443 81.884C6.50518 85.1141 9.31797 86.0321 13.7199 86.4573C19.477 87.0134 27.2221 83.1907 27.2221 83.1907V73.173C27.2221 73.173 22.2132 75.1329 15.0266 74.2618V0Z" fill="#28303B"/>
<path d="M159.195 23.3032H173.133V86.4585H159.195V23.3032Z" fill="#FEAD00"/>
<path d="M159.195 2.82907H173.133V17.2023H159.195V2.82907Z" fill="#FEAD00"/>
<path fill-rule="evenodd" clip-rule="evenodd" d="M213.423 86.4563C230.863 86.4563 245.001 72.3185 245.001 54.8786C245.001 37.4388 230.863 23.301 213.423 23.301C195.983 23.301 181.846 37.4388 181.846 54.8786C181.846 72.3185 195.983 86.4563 213.423 86.4563ZM213.641 75.3504C225.067 75.3504 234.33 66.1852 234.33 54.8794C234.33 43.5735 225.067 34.4083 213.641 34.4083C202.215 34.4083 192.952 43.5735 192.952 54.8794C192.952 66.1852 202.215 75.3504 213.641 75.3504Z" fill="#FEAD00"/>
</svg>
