<svg width="1394" height="118" viewBox="0 0 1394 118" fill="none" xmlns="http://www.w3.org/2000/svg">
<rect x="0.997864" width="1393" height="118" rx="16" fill="#FEAD00"/>
<path d="M0 16C0 7.16345 7.16344 0 16 0H1378C1386.84 0 1394 7.16344 1394 16V38C1394 82.1828 1358.18 118 1314 118H16C7.16345 118 0 110.837 0 102V16Z" fill="#2B303B"/>
<rect width="14.5876" height="14.5163" rx="3" transform="matrix(0.917929 0.396744 -0.401568 0.915829 1366.09 80.8262)" fill="#FEAD00"/>
<rect width="9.00661" height="8.9626" rx="3" transform="matrix(0.917929 0.396744 -0.401569 0.915829 1357.88 68.9414)" fill="#FEAD00"/>
<rect width="8.98464" height="8.98464" rx="3" transform="matrix(0.709643 0.704562 -0.709643 0.704562 1372.42 30.4707)" fill="#FEAD00"/>
<rect width="8.98464" height="8.98464" rx="3" transform="matrix(0.709643 0.704561 -0.709643 0.704561 1380.64 5)" fill="#FEAD00"/>
<rect width="3.19952" height="3.18387" rx="1.59194" transform="matrix(0.91793 0.396742 -0.40157 0.915828 1376.15 76.5469)" fill="#FEAD00"/>
<rect width="3.19952" height="3.18388" rx="1.59194" transform="matrix(0.917929 0.396744 -0.401569 0.915829 1378.65 25.918)" fill="#FEAD00"/>
<rect width="3.19952" height="3.18387" rx="1.59194" transform="matrix(0.91793 0.396742 -0.40157 0.915828 1367.53 46.8359)" fill="#FEAD00"/>
<rect width="3.1995" height="3.18387" rx="1.59193" transform="matrix(0.917929 0.396744 -0.401568 0.915829 1342.74 92.9492)" fill="#FEAD00"/>
<rect width="2.31931" height="2.308" rx="1.154" transform="matrix(0.917927 0.396748 -0.401564 0.915831 1352.69 62.7617)" fill="#FEAD00"/>
<rect width="2.31931" height="2.30798" rx="1.15399" transform="matrix(0.917929 0.396744 -0.401568 0.915829 1377.82 46.8359)" fill="#FEAD00"/>
<rect width="2.31931" height="2.30798" rx="1.15399" transform="matrix(0.917929 0.396745 -0.401568 0.915829 1372.21 57.0566)" fill="#FEAD00"/>
<rect width="2.31931" height="2.30799" rx="1.154" transform="matrix(0.917928 0.396746 -0.401566 0.91583 1365.5 27.3438)" fill="#FEAD00"/>
<rect width="2.31932" height="2.308" rx="1.154" transform="matrix(0.917928 0.396746 -0.401566 0.91583 1357.36 83.4414)" fill="#FEAD00"/>
<rect width="7.57252" height="7.53742" rx="3" transform="matrix(0.90855 -0.417776 0.422747 0.906248 1369.84 67.1133)" fill="#FEAD00"/>
<rect width="7.57252" height="7.53742" rx="3" transform="matrix(0.90855 -0.417776 0.422748 0.906248 1350.32 96.1113)" fill="#FEAD00"/>
<rect width="5.03738" height="5.01399" rx="2.507" transform="matrix(0.908552 -0.417772 0.422752 0.906246 1360.37 57.9902)" fill="#FEAD00"/>
<rect width="5.03739" height="6.01403" rx="2.51869" transform="matrix(0.908551 -0.417775 0.422749 0.906247 1345.77 84.832)" fill="#FEAD00"/>
<rect width="5.0167" height="6.03475" rx="2.50835" transform="matrix(0.502696 -0.864464 0.867573 0.497309 1340.12 109.496)" fill="#FEAD00"/>
<rect width="5.03739" height="6.01403" rx="2.5187" transform="matrix(0.90855 -0.417775 0.422748 0.906247 1370.67 20.416)" fill="#FEAD00"/>
</svg>
